<svg xmlns="http://www.w3.org/2000/svg" xmlns:xlink="http://www.w3.org/1999/xlink"><symbol id="icon-back"><path class="pop-up__button-svg" stroke-miterlimit="22.926" d="M8 20l23.5 11.5v-23z"/></symbol><symbol id="icon-close"><path class="pop-up__button-svg" stroke-width="5" stroke-linecap="round" stroke-linejoin="round" stroke-miterlimit="22.926" d="M8.5 8.5l23 23m-23 0l23-23"/></symbol><symbol id="icon-logo" viewBox="0 0 38.68 38.62"><g <path="" class="pop-up__logo-svg" fill-rule="nonzero" d="M14.16 28.08c.44 0 .81.15 1.12.45.3.31.45.67.45 1.1 0 .43-.15.79-.45 1.09-.31.3-.68.45-1.12.45h-.68v1.42h-1.03v-4.51h1.71zm0 2.13c.16 0 .29-.06.39-.17.1-.11.15-.25.15-.41 0-.16-.05-.3-.15-.41a.507.507 0 00-.39-.17h-.68v1.16h.68zm4.46 2.38l-.85-1.48h-.49v1.48h-1.03v-4.51h1.8c.43 0 .79.15 1.09.45.31.31.46.67.46 1.1 0 .27-.08.53-.23.76-.16.24-.36.42-.6.55l.95 1.65h-1.1zm-1.34-3.54v1.16h.77c.14 0 .26-.06.36-.17.11-.11.16-.25.16-.41 0-.16-.05-.3-.16-.41a.475.475 0 00-.36-.17h-.77zM23.95 32c-.45.45-1.01.68-1.66.68-.65 0-1.2-.23-1.66-.68-.45-.45-.68-1-.68-1.66 0-.66.23-1.22.68-1.67.46-.45 1.01-.68 1.66-.68.65 0 1.21.23 1.66.68.46.45.69 1.01.69 1.67 0 .66-.23 1.21-.69 1.66zm-2.59-.7c.25.25.56.38.93.38.38 0 .69-.13.94-.38s.38-.57.38-.96c0-.4-.13-.72-.38-.97s-.56-.37-.94-.37c-.37 0-.68.12-.93.37-.26.25-.38.57-.38.97 0 .39.12.71.38.96z"/><path class="pop-up__logo-svg" d="M14.67 9.39L0 38.62h28.51l-2.67-5.66-16.25-.04 8.29-16.55-3.21-6.98zM31.6 38.62l7.08-.08L19.37 0l-3.26 6.5L31.6 38.62z"/></symbol><symbol id="icon-logo_simple" viewBox="0 0 59.5 59.4"><path class="pop-up__logo-svg" d="M22.56 14.44L0 59.4h43.86l-4.11-8.69-25-.07L27.5 25.18l-4.94-10.74zM48.61 59.4l10.89-.12L29.8 0l-5.02 10 23.83 49.4z"/></symbol><symbol id="icon-openwide"><path class="pop-up__openwide-svg" stroke-width="3" stroke-miterlimit="22.926" d="M2 2.5l13 10 13-10"/></symbol></svg>